HIERARCHY
ROOT Hips
{
	OFFSET 0.000000 0.000000 0.000000 
	CHANNELS 6 Xposition Yposition Zposition Zrotation Yrotation Xrotation
	JOINT LeftUpLeg
	{
		OFFSET 1.363060 -1.794630 0.839290 
		CHANNELS 3 Zrotation Yrotation Xrotation
		JOINT LeftLeg
		{
			OFFSET 2.448110 -6.726130 0.000000 
			CHANNELS 3 Zrotation Yrotation Xrotation
			JOINT LeftFoot
			{
				OFFSET 2.562200 -7.039590 0.000000 
				CHANNELS 3 Zrotation Yrotation Xrotation
				JOINT LeftToeBase
				{
					OFFSET 0.157640 -0.433110 2.322550 
					CHANNELS 3 Zrotation Yrotation Xrotation
					End Site
					{
						OFFSET 0.000000 0.000000 0.000000 
					}
				}
			}
		}
	}
	JOINT RightUpLeg
	{
		OFFSET -1.305520 -1.794630 0.839290 
		CHANNELS 3 Zrotation Yrotation Xrotation
		JOINT RightLeg
		{
			OFFSET -2.542530 -6.985550 0.000000 
			CHANNELS 3 Zrotation Yrotation Xrotation
			JOINT RightFoot
			{
				OFFSET -2.568260 -7.056230 0.000000 
				CHANNELS 3 Zrotation Yrotation Xrotation
				JOINT RightToeBase
				{
					OFFSET -0.164730 -0.452590 2.363150 
					CHANNELS 3 Zrotation Yrotation Xrotation
					End Site
					{
						OFFSET 0.000000 0.000000 0.000000 
					}
				}
			}
		}
	}
	JOINT Spine
	{
		OFFSET 0.028270 2.035590 -0.193380 
		CHANNELS 3 Zrotation Yrotation Xrotation
		JOINT Spine1
		{
			OFFSET 0.056720 2.048850 -0.042750 
			CHANNELS 3 Zrotation Yrotation Xrotation
			JOINT Neck1
			{
				OFFSET -0.054170 1.746240 0.172020 
				CHANNELS 3 Zrotation Yrotation Xrotation
				JOINT Head
				{
					OFFSET 0.104070 1.761360 -0.123970 
					CHANNELS 3 Zrotation Yrotation Xrotation
					End Site
					{
						OFFSET 0.000000 0.000000 0.000000 
					}
				}
			}
			JOINT LeftArm
			{
				OFFSET 3.362410 1.200890 -0.311210 
				CHANNELS 3 Zrotation Yrotation Xrotation
				JOINT LeftForeArm
				{
					OFFSET 4.983000 -0.000000 -0.000000 
					CHANNELS 3 Zrotation Yrotation Xrotation
					JOINT LeftHand
					{
						OFFSET 3.483560 -0.000000 -0.000000 
						CHANNELS 3 Zrotation Yrotation Xrotation
						JOINT LeftFingerBase
						{
							OFFSET 0.000000 0.000000 0.000000 
							CHANNELS 3 Zrotation Yrotation Xrotation
							End Site
							{
								OFFSET 0.000000 0.000000 0.000000 
							}
						}
					}
				}
			}
			JOINT RightArm
			{
				OFFSET -3.136600 1.374050 -0.404650 
				CHANNELS 3 Zrotation Yrotation Xrotation
				JOINT RightForeArm
				{
					OFFSET -5.241900 -0.000000 -0.000000 
					CHANNELS 3 Zrotation Yrotation Xrotation
					JOINT RightHand
					{
						OFFSET -3.444170 -0.000000 -0.000000 
						CHANNELS 3 Zrotation Yrotation Xrotation
						JOINT RightFingerBase
						{
							OFFSET 0.000000 0.000000 0.000000 
							CHANNELS 3 Zrotation Yrotation Xrotation
							End Site
							{
								OFFSET 0.000000 0.000000 0.000000 
							}
						}
					}
				}
			}
		}
	}
}
MOTION
Frames: 5
Frame Time: 0.008333
-9.504039 13.213994 1.398569 -12.802456 78.930977 -3.364663 -13.566348 27.260583 -38.955266 -25.472631 32.449655 22.969819 -4.765865 -8.024159 -21.116002 -9.340957 -7.140633 -20.476765 -11.242966 -16.539962 -21.313515 -20.162444 -10.150312 67.287665 -14.780275 -12.395563 11.235196 -5.045996 -44.944081 -23.125535 0.857097 -11.492845 5.015932 -1.992131 -21.728146 -23.021407 3.182561 -8.385663 34.638485 -8.298346 1.079204 -51.215490 -63.773705 -86.796808 31.074577 11.241435 -25.632936 -3.585848 2.573394 8.110980 -0.376138 -0.917798 -4.881528 -13.401818 66.392863 76.865816 39.170624 -37.626994 37.380774 -13.411130 -20.417706 -8.777012 6.569503 -6.970804 -11.299056 -15.383877
-9.274850 13.225946 1.387698 -14.233315 78.829895 -4.375814 3.922154 12.706506 -55.172177 -26.120581 21.246935 53.828754 -24.935716 17.110298 23.096722 -27.767567 32.940629 15.379027 3.194227 6.452760 -5.309453 15.014519 -18.411587 68.252769 15.507121 9.992586 -8.919605 -19.699788 -9.899082 -48.263823 11.225041 12.538158 -27.154158 14.653949 -20.360586 -5.458917 8.709960 -6.985653 6.696519 9.961293 21.040591 -14.683916 -92.800278 -93.066548 31.308988 42.699742 -46.108816 -8.071389 16.412734 1.149357 4.927887 -3.109099 -1.567006 8.050988 92.993527 86.764866 49.267739 -36.577387 6.283519 -21.486162 -31.015571 13.306324 -12.072782 -17.210441 -7.370996 -19.542854
-9.044865 13.234505 1.380784 -15.252708 78.662460 -5.019760 4.401650 5.866998 -56.052423 -24.300389 12.979687 20.109020 -9.510076 21.739599 -8.895333 -22.856410 23.684485 10.172882 -16.596057 -8.880258 -30.848317 -20.229622 -33.603019 64.851863 -4.427541 -0.104779 2.717802 -9.009931 -34.497251 -22.938089 11.792881 12.195109 -0.960598 -10.868445 2.767062 1.522977 15.263600 21.269846 18.491241 10.642448 -12.057707 -52.254279 -87.242152 -93.401636 -4.383427 33.917002 -55.322600 3.168049 11.558815 -9.744396 -21.416489 -18.518813 21.943090 7.404678 83.273851 94.036106 53.754221 -24.481153 0.358173 -51.891213 -35.196648 -20.696548 -3.770333 18.852344 -9.413191 -3.971331
-8.810646 13.247357 1.375132 -16.394274 78.682053 -5.799456 15.859754 -8.028339 -36.557283 -24.389525 12.763380 33.039266 2.684004 -14.130882 -18.426864 -22.158556 22.462038 1.843441 12.377532 3.994543 -26.489631 -3.013003 -29.767483 67.222933 9.737683 15.806835 0.530346 6.008438 -0.447453 -51.911630 -20.546729 -11.624410 0.119556 -18.654415 -3.445740 -25.665741 -16.471184 23.609235 -7.099956 -1.696008 -10.083062 -26.228618 -102.124682 -73.320536 35.129853 27.878572 -23.274968 -19.636838 -5.896001 6.094181 17.770691 20.437734 -13.150289 20.451630 91.800889 64.225389 45.883405 -30.603406 3.760300 -46.590429 -21.722868 -15.947645 -21.482317 -6.255530 -1.847163 -8.534252
-8.582102 13.253814 1.375227 -16.009581 78.725639 -5.274573 -13.216482 -8.432267 -59.150527 6.053748 -3.633006 50.933610 18.983328 1.880982 -3.039471 -1.845043 23.944211 -21.460774 4.459817 -33.296147 -37.083766 -21.153852 -38.145707 71.536211 14.654591 14.456778 -19.261215 -18.764272 -29.796057 -45.979080 -1.038639 -6.619211 -5.338074 -16.230853 19.398750 -9.403663 3.427335 19.930795 -9.087902 14.723117 -15.401847 -31.917592 -81.072007 -84.286139 29.574848 29.999571 -36.719157 4.054489 29.297259 -4.182022 16.911502 -13.301295 -20.358113 15.489213 60.254718 63.271636 39.006897 -10.925076 31.919654 -17.916807 -22.670235 -27.951934 12.215732 -5.076744 0.298229 10.113037
